<svg width="51" height="90" viewBox="0 0 51 90" fill="none" xmlns="http://www.w3.org/2000/svg">
<path d="M45.5719 0H14.2765C11.6588 0 9.52922 2.12959 9.52922 4.7475V41.0469C9.25061 41.4257 8.7869 42.0383 8.33303 42.6379C6.65239 44.8581 4.11252 48.2138 2.59782 50.5983C-0.389059 55.3078 -0.446715 60.0137 2.40534 66.3339C2.4252 66.378 2.447 66.4212 2.47055 66.4636C2.47055 66.4636 6.04155 72.9218 6.19465 73.2046C7.09623 74.8703 8.60514 77.6582 8.50952 79.8495C8.50846 79.875 8.50793 79.9005 8.50793 79.9262V85.1231C8.50793 87.8122 10.6957 90 13.3848 90H29.2691C31.9582 90 34.146 87.8122 34.146 85.1231L34.131 80.5697C34.1319 78.8168 34.397 77.8934 34.7322 76.725C34.9613 75.9271 35.2205 75.0227 35.4067 73.7974C35.4114 73.7657 35.4155 73.7341 35.4185 73.7021C35.6784 71.0031 34.9771 68.3968 34.2346 65.6376C33.8132 64.0717 33.3638 62.4008 33.0419 60.5524H45.5721C48.1898 60.5524 50.3194 58.4228 50.3194 55.8049V38.1712C50.3194 37.2006 49.5323 36.4134 48.5616 36.4134C47.591 36.4134 46.8038 37.2006 46.8038 38.1712V55.8047C46.8038 56.484 46.2512 57.0366 45.5721 57.0366H41.4254V3.51562H45.5719C46.251 3.51562 46.8036 4.06828 46.8036 4.7475V22.3812C46.8036 23.3518 47.5908 24.139 48.5615 24.139C49.5321 24.139 50.3193 23.3518 50.3193 22.3812V4.7475C50.3193 2.12959 48.1897 0 45.5719 0V0ZM29.2689 86.4844H13.3846C12.6467 86.4844 12.0234 85.8609 12.0234 85.1231V79.9618C12.1441 76.8115 10.3564 73.5082 9.28647 71.5312C9.14004 71.2608 5.5803 64.8225 5.5803 64.8225C3.24276 59.6136 3.24047 56.1491 5.56606 52.4823C6.58418 50.8795 8.12912 48.7637 9.52922 46.8921V55.8049C9.52922 58.4228 11.6588 60.5524 14.2765 60.5524H19.9128V66.4181C19.9128 67.3887 20.6998 68.1759 21.6706 68.1759C22.6414 68.1759 23.4284 67.3887 23.4284 66.4181V47.9074C23.4284 46.3215 24.7185 45.0313 26.3044 45.0313C27.0759 45.0313 27.8038 45.3361 28.354 45.8896C28.8945 46.4333 29.1898 47.1463 29.1853 47.8969C29.1816 48.4993 29.1724 52.463 29.1019 54.3025C29.0395 55.9296 29.1084 57.443 29.258 58.8558C29.2615 58.9583 29.398 59.9996 29.46 60.4074C29.8144 62.7342 30.3589 64.7655 30.8395 66.551C31.5202 69.0805 32.1088 71.2673 31.9232 73.318C31.7719 74.2943 31.5681 75.0043 31.3526 75.755C30.9902 77.0187 30.6152 78.3255 30.6152 80.5787C30.6152 80.5848 30.6152 80.591 30.6154 80.5969L30.6302 85.1228C30.6302 85.8609 30.0069 86.4844 29.2689 86.4844ZM37.9098 57.0368H32.6371C32.5919 56.2064 32.6974 48.5156 32.7009 47.9178C32.7109 46.224 32.0526 44.6235 30.8471 43.4109C29.6321 42.1887 28.0186 41.5157 26.3042 41.5157C22.78 41.5157 19.9126 44.383 19.9126 47.9074V57.0368H14.2764C13.5972 57.0368 13.0447 56.4841 13.0447 55.8049V4.7475C13.0447 4.06828 13.5973 3.51562 14.2764 3.51562H37.9098V57.0368Z" fill="#D9C896"/>
<path d="M48.5615 28.521C47.5908 28.521 46.8036 29.3081 46.8036 30.2788V30.2837C46.8036 31.2544 47.5908 32.0391 48.5615 32.0391C49.5321 32.0391 50.3193 31.2495 50.3193 30.2786C50.3193 29.3078 49.5321 28.521 48.5615 28.521Z" fill="#D9C896"/>
</svg>
