<svg width="91" height="74" viewBox="0 0 91 74" fill="none" xmlns="http://www.w3.org/2000/svg">
<path d="M67.684 66.1094C66.7132 66.1094 65.9237 65.3224 65.9237 64.3516C65.9237 63.3809 66.7082 62.5938 67.6789 62.5938H67.6838C68.6547 62.5938 69.4417 63.3807 69.4417 64.3516C69.4418 65.3222 68.6549 66.1094 67.684 66.1094Z" fill="#D9C896"/>
<path d="M24.0479 62.5938H24.043C23.0721 62.5938 22.2878 63.3807 22.2878 64.3516C22.2878 65.3222 23.0772 66.1094 24.0481 66.1094C25.0189 66.1094 25.8059 65.3224 25.8059 64.3516C25.8057 63.3809 25.0188 62.5938 24.0479 62.5938Z" fill="#D9C896"/>
<path d="M87.5677 57.9582V43.6489C87.5677 43.4292 87.5248 43.205 87.4437 43.0008L79.0534 21.8499C78.7876 21.1802 78.14 20.7404 77.4195 20.7404H63.4577V13.8432C63.4577 12.8726 62.6707 12.0854 61.6999 12.0854H43.4619C42.4998 10.5074 41.3439 9.03263 40.0037 7.69247C36.6155 4.30429 32.3421 2.06607 27.6454 1.21968C23.0574 0.392805 18.3821 0.939485 14.1259 2.80083C13.2365 3.18984 12.8307 4.22607 13.2198 5.11552C13.6088 6.0048 14.6452 6.41085 15.5344 6.02167C23.069 2.72683 31.6979 4.35808 37.5178 10.1784C41.2679 13.9285 43.3332 18.9138 43.3332 24.2163C43.3332 29.5183 41.2681 34.5023 37.5175 38.2508C33.7698 42.0008 28.7861 44.066 23.484 44.066C18.1819 44.066 13.1965 42.0006 9.44643 38.2505C3.63493 32.4391 1.99999 23.8146 5.28112 16.279C5.66872 15.3891 5.26126 14.3532 4.37127 13.9656C3.48165 13.5785 2.44559 13.9854 2.05799 14.8756C0.204556 19.1321 -0.337378 23.8046 0.490552 28.3879C1.30512 32.897 3.40536 37.013 6.57047 40.3312V57.9582C5.07159 58.6319 4.02446 60.138 4.02446 61.8851V64.172C4.02446 66.5451 5.95506 68.4759 8.32811 68.4759H15.3585C16.9055 71.7222 20.2185 73.9715 24.0477 73.9715C27.8748 73.9715 31.1862 71.7222 32.7324 68.4759H58.9941C60.5404 71.7222 63.8516 73.9715 67.6787 73.9715C71.5079 73.9715 74.8207 71.7222 76.3679 68.4759H85.8099C88.1829 68.4759 90.1135 66.5451 90.1135 64.172V61.8851C90.1137 60.138 89.0667 58.6319 87.5677 57.9582ZM79.491 32.4869L83.2216 41.8912H64.1402V32.4869H79.491ZM76.2259 24.2558L78.0966 28.9713H62.3826C61.4118 28.9713 60.6248 29.7583 60.6248 30.7291V43.6489C60.6248 44.6195 61.4118 45.4067 62.3826 45.4067H84.0522V49.7388H81.6646C80.6937 49.7388 79.9068 50.5258 79.9068 51.4966C79.9068 52.4675 80.6937 53.2544 81.6646 53.2544H84.0522V57.5815H74.5025C72.7586 55.8258 70.3439 54.7365 67.6789 54.7365C65.0153 54.7365 62.6018 55.8258 60.8588 57.5815H54.9527V24.2558H76.2259ZM14.449 64.9606H8.32811C7.90079 64.9606 7.53991 64.5995 7.53991 64.1722V61.8853C7.53991 61.4578 7.90096 61.0969 8.32811 61.0969H14.9962C14.629 62.114 14.4277 63.2096 14.4277 64.3517C14.4277 64.5563 14.4363 64.759 14.449 64.9606ZM24.0477 70.4562C20.6817 70.4562 17.9432 67.7177 17.9432 64.3515C17.9432 60.9881 20.6817 58.2517 24.0477 58.2517C27.4111 58.2517 30.1473 60.9881 30.1473 64.3515C30.1473 67.7177 27.4111 70.4562 24.0477 70.4562ZM30.8678 57.5813C29.1248 55.8256 26.7113 54.7363 24.0477 54.7363C21.3827 54.7363 18.968 55.8256 17.224 57.5813H10.0859V43.3652C13.9846 46.1052 18.621 47.5815 23.4841 47.5815C29.7254 47.5815 35.5925 45.1502 40.0034 40.7367C44.4176 36.3248 46.8486 30.4579 46.8486 24.2163C46.8486 21.2183 46.2863 18.3068 45.2141 15.6009H59.9421V20.7402H53.1947C52.2239 20.7402 51.4369 21.5272 51.4369 22.498V57.5811H30.8678V57.5813ZM33.6415 64.9606C33.6541 64.759 33.6628 64.5563 33.6628 64.3515C33.6628 63.2095 33.4617 62.1138 33.0946 61.0967H58.632C58.2649 62.1138 58.0638 63.2095 58.0638 64.3515C58.0638 64.5563 58.0724 64.759 58.0851 64.9606H33.6415ZM67.6789 70.4562C64.3155 70.4562 61.5793 67.7177 61.5793 64.3515C61.5793 60.9881 64.3155 58.2517 67.6789 58.2517C69.5561 58.2517 71.2374 59.1034 72.3582 60.4397C72.3707 60.4551 72.3837 60.4699 72.3965 60.485C73.2626 61.5381 73.7832 62.8851 73.7832 64.3515C73.7834 67.7177 71.0449 70.4562 67.6789 70.4562ZM86.5982 64.1722C86.5982 64.5997 86.2372 64.9606 85.81 64.9606H77.2776C77.2903 64.759 77.2989 64.5563 77.2989 64.3515C77.2989 63.2095 77.0976 62.1138 76.7304 61.0967H85.8099C86.2372 61.0967 86.5981 61.4578 86.5981 61.8851V64.1722H86.5982Z" fill="#D9C896"/>
<path d="M23.4849 40.4294C32.4241 40.4294 39.6966 33.1568 39.6966 24.2172C39.6966 15.2751 32.4241 8 23.4849 8C14.5429 8 7.26817 15.2751 7.26817 24.2172C7.26817 33.1566 14.5429 40.4294 23.4849 40.4294ZM23.4849 11.5154C30.4857 11.5154 36.1812 17.2134 36.1812 24.2172C36.1812 31.2182 30.4857 36.9139 23.4849 36.9139C16.4814 36.9139 10.7836 31.2182 10.7836 24.2172C10.7836 17.2132 16.4814 11.5154 23.4849 11.5154Z" fill="#D9C896"/>
<path d="M23.4849 25.9748H28.562C29.5328 25.9748 30.3198 25.1879 30.3198 24.217C30.3198 23.2464 29.5328 22.4592 28.562 22.4592H25.2425V16.9026C25.2425 15.9319 24.4555 15.1448 23.4847 15.1448C22.5139 15.1448 21.7269 15.9317 21.7269 16.9026V24.217C21.7271 25.1879 22.514 25.9748 23.4849 25.9748Z" fill="#D9C896"/>
<path d="M8.19876 10.6982C8.64859 10.6982 9.09841 10.5265 9.44171 10.1833L9.44663 10.1784C10.1331 9.492 10.1304 8.38159 9.44417 7.69516C8.75775 7.00892 7.64241 7.0112 6.95581 7.69763C6.26939 8.38405 6.26939 9.4971 6.95581 10.1835C7.29911 10.5266 7.74894 10.6982 8.19876 10.6982Z" fill="#D9C896"/>
</svg>
