<svg width="87" height="71" viewBox="0 0 87 71" fill="none" xmlns="http://www.w3.org/2000/svg">
<path d="M85.9775 17.2314L55.7431 0.62965C55.2164 0.340572 54.5779 0.340572 54.0512 0.62965L42.6817 6.87263C42.4249 6.94404 42.1853 7.07519 41.982 7.25647L23.8168 17.2314C23.2545 17.5404 22.905 18.1309 22.905 18.7722V22.3661H2.62421C1.65329 22.3661 0.866394 23.1537 0.866394 24.1239C0.866394 25.0948 1.65329 25.8817 2.62421 25.8817H22.905V32.2099H12.8271C11.8562 32.2099 11.0693 32.9974 11.0693 33.9677C11.0693 34.9386 11.8562 35.7255 12.8271 35.7255H22.905V44.8661H8.13934C7.16843 44.8661 6.38153 45.6537 6.38153 46.6239C6.38153 47.5948 7.16843 48.3817 8.13934 48.3817H22.905V51.9763C22.905 52.6176 23.2545 53.2082 23.8168 53.5172L54.0512 70.1189C54.3149 70.2637 54.606 70.3358 54.8972 70.3358C55.1883 70.3358 55.4794 70.2637 55.7431 70.1189L85.9775 53.5172C86.5398 53.2082 86.8893 52.6176 86.8893 51.9763V44.1046C86.8893 43.1344 86.1024 42.3468 85.1315 42.3468C84.1606 42.3468 83.3737 43.1344 83.3737 44.1046V50.9361L56.655 65.6076V36.4142L65.1522 31.7484V39.1532C65.1522 39.7753 65.4804 40.3507 66.0153 40.6666C66.2907 40.8293 66.6003 40.911 66.91 40.911C67.2012 40.911 67.493 40.8389 67.7573 40.6934L74.2365 37.1276C74.7975 36.8186 75.1463 36.2288 75.1463 35.5875V26.2608L83.3737 21.7433V30.0421C83.3737 31.013 84.1606 31.7999 85.1315 31.7999C86.1024 31.7999 86.8893 31.013 86.8893 30.0421V18.7722C86.8893 18.1309 86.5398 17.5404 85.9775 17.2314ZM53.1393 65.6076L26.4206 50.9361V21.7433L53.1393 36.4142V65.6076ZM54.8972 33.3689L28.315 18.7722L36.6695 14.1847L63.2523 28.7814L54.8972 33.3689ZM66.9045 26.7757L40.3217 12.179L43.2036 10.597L69.7857 25.1937L66.9045 26.7757ZM71.6307 34.5486L68.6678 36.1794V29.8183L71.6307 28.1909V34.5486ZM73.438 23.188L46.8559 8.59131L54.8972 4.17617L81.4793 18.7722L73.438 23.188Z" fill="#D9C896"/>
</svg>
