<svg width="91" height="91" viewBox="0 0 91 91" fill="none" xmlns="http://www.w3.org/2000/svg">
<g clip-path="url(#clip0)">
<path d="M79.1232 43.6546C77.7416 41.5919 77.6489 41.3413 77.5377 38.741C77.4649 37.0388 77.3818 35.11 76.2454 33.5479C74.4327 31.0574 70.9349 30.8089 69.2575 29.588C67.6905 28.4475 66.4216 25.4496 63.7691 24.3269V9.46381C63.7691 4.3222 59.586 0.13916 54.4444 0.13916H19.0231C13.8815 0.13916 9.69849 4.3222 9.69849 9.46381V66.4815C9.69849 71.6231 13.8815 75.8061 19.0231 75.8061H43.3551V86.5913C43.3551 89.6489 46.9676 91.2666 49.2493 89.2369L54.5371 84.5341C54.9993 84.1228 55.6962 84.1228 56.159 84.5341L61.4462 89.2376C63.73 91.268 67.3403 89.6468 67.3403 86.5913V69.9902C69.0364 67.8424 69.1648 67.6955 71.6765 66.7637C76.2557 65.0649 77.3283 63.5941 77.5377 58.7251C77.6489 56.1282 77.7403 55.8749 79.1232 53.8108C80.0859 52.3723 81.1783 50.7415 81.1783 48.7331C81.1776 46.7239 80.0859 45.0938 79.1232 43.6546ZM19.0231 72.2905C15.8199 72.2905 13.2141 69.6847 13.2141 66.4815V9.46381C13.2141 6.2606 15.8199 3.65479 19.0231 3.65479H54.4444C57.6476 3.65479 60.2535 6.2606 60.2535 9.46381V24.0125C58.1139 24.3647 56.4577 25.256 54.7287 25.0259C52.6255 24.7458 49.9703 23.3148 47.3644 24.1608C45.4851 24.7712 44.278 26.3038 43.213 27.6558C41.6474 29.6443 41.4298 29.8077 39.0189 30.7018C34.6052 32.3394 33.3727 33.7271 33.1577 38.741C33.0465 41.3345 32.9593 41.5851 31.5723 43.6546C30.5128 45.2374 29.5171 46.7967 29.5171 48.7331C29.5171 51.8642 32.2253 54.1637 32.8371 56.0472C33.7805 58.9545 31.7913 63.614 37.393 66.1182C41.21 67.8252 40.8688 66.8413 43.3551 69.9902V72.2905H19.0231ZM63.8247 86.5913V86.6057C63.8158 86.6132 63.7993 86.6208 63.7993 86.6228C63.7986 86.6228 63.7931 86.6201 63.7821 86.6105L58.495 81.907C56.7008 80.3119 53.9947 80.3119 52.2005 81.9077C52.1799 81.9262 46.9174 86.6022 46.9016 86.6201C46.89 86.618 46.8721 86.6125 46.8714 86.6119C46.8707 80.1443 46.8701 97.4011 46.8701 73.1179C49.9497 74.4582 53.0361 72.3956 55.3474 72.3956C57.5007 72.3956 60.4732 74.2392 63.331 73.3054C63.5075 73.2477 63.7389 73.1557 63.8247 73.1179V86.5913ZM76.2015 51.8552C74.4677 54.4446 74.1663 55.2871 74.0255 58.5748C73.8786 61.9942 73.6781 62.2717 70.4536 63.4678C69.3392 63.8818 68.187 64.3089 67.1886 65.0354C65.1671 66.5069 63.9208 69.261 62.3917 69.9065C60.9518 70.5121 58.3906 69.0557 55.8225 68.8957C52.4827 68.6863 49.6915 70.8856 47.8952 69.6819C46.5157 68.7536 45.3835 66.4018 43.5062 65.0354C42.0615 63.9835 40.2137 63.5316 38.8123 62.9034C36.9206 62.056 36.7894 61.366 36.6699 58.5748C36.5546 55.8831 36.3809 54.7632 34.978 52.5886C32.6977 49.0517 32.2747 48.9246 34.4933 45.6116C36.2531 42.9838 36.5299 42.1516 36.6699 38.8914C36.8141 35.5193 36.9817 35.2075 40.2412 33.9983C43.8529 32.658 44.1454 32.0771 46.4368 29.2495C48.2042 27.0673 48.7377 27.1017 51.7006 27.9256C54.8228 28.7943 55.7813 28.819 58.9935 27.9263C62.2427 27.0241 62.5695 27.0996 64.7215 29.8318C66.6908 32.3318 67.4111 32.8695 70.4536 33.9983C73.6781 35.1945 73.8793 35.4719 74.0255 38.8921C74.1663 42.1797 74.4684 43.0222 76.2015 45.6116C78.1468 48.5154 78.1468 48.95 76.2015 51.8552Z" fill="#D9C896"/>
<path d="M68.1128 46.9753C67.1426 46.9753 66.3557 47.7622 66.3557 48.7331C66.3557 54.8023 61.4173 59.7407 55.3474 59.7407C49.2781 59.7407 44.3398 54.8023 44.3398 48.7331C44.3398 40.3079 53.4516 35.0434 60.7252 39.1255C61.5718 39.6014 62.6437 39.3 63.1182 38.4526C63.5933 37.6067 63.2919 36.5348 62.4459 36.0597C52.8439 30.6709 40.8242 37.6184 40.8242 48.7331C40.8242 56.7414 47.3391 63.2563 55.3474 63.2563C63.3557 63.2563 69.8706 56.7414 69.8706 48.7331C69.8706 47.7622 69.0837 46.9753 68.1128 46.9753Z" fill="#D9C896"/>
<path d="M66.2787 43.8943H66.2836C67.2538 43.8943 68.0386 43.1074 68.0386 42.1365C68.0386 41.1663 67.2497 40.3794 66.2787 40.3794C65.3078 40.3794 64.5209 41.1663 64.5209 42.1365C64.5209 43.1074 65.3085 43.8943 66.2787 43.8943Z" fill="#D9C896"/>
<path d="M22.0272 16.6035H51.4404C52.4106 16.6035 53.1982 15.8159 53.1982 14.8457C53.1982 13.8748 52.4106 13.0879 51.4404 13.0879H22.0272C21.0563 13.0879 20.2694 13.8748 20.2694 14.8457C20.2694 15.8159 21.0563 16.6035 22.0272 16.6035Z" fill="#D9C896"/>
<path d="M22.0272 28.6733H37.4108C38.3817 28.6733 39.1686 27.8858 39.1686 26.9155C39.1686 25.9446 38.3817 25.1577 37.4108 25.1577H22.0272C21.0563 25.1577 20.2694 25.9446 20.2694 26.9155C20.2694 27.8858 21.0563 28.6733 22.0272 28.6733Z" fill="#D9C896"/>
<path d="M22.0272 40.7432H28.2709C29.2418 40.7432 30.0287 39.9556 30.0287 38.9854C30.0287 38.0144 29.2418 37.2275 28.2709 37.2275H22.0272C21.0563 37.2275 20.2694 38.0144 20.2694 38.9854C20.2694 39.9556 21.0563 40.7432 22.0272 40.7432Z" fill="#D9C896"/>
<path d="M29.3256 59.7852H22.0272C21.0563 59.7852 20.2694 60.5721 20.2694 61.543C20.2694 62.5132 21.0563 63.3008 22.0272 63.3008H29.3256C30.2958 63.3008 31.0834 62.5132 31.0834 61.543C31.0834 60.5721 30.2958 59.7852 29.3256 59.7852Z" fill="#D9C896"/>
<path d="M22.0272 52.813H25.1068C26.0777 52.813 26.8646 52.0254 26.8646 51.0552C26.8646 50.0843 26.0777 49.2974 25.1068 49.2974H22.0272C21.0563 49.2974 20.2694 50.0843 20.2694 51.0552C20.2694 52.0254 21.0563 52.813 22.0272 52.813Z" fill="#D9C896"/>
</g>
<defs>
<clipPath id="clip0">
<rect width="90" height="90" fill="white" transform="translate(0.38208 0.13916)"/>
</clipPath>
</defs>
</svg>
