<svg width="91" height="70" viewBox="0 0 91 70" fill="none" xmlns="http://www.w3.org/2000/svg">
<path fill-rule="evenodd" clip-rule="evenodd" d="M44.9911 51.1495H7.36839C5.43823 51.1495 3.68523 50.3612 2.41562 49.0916C1.14532 47.8213 0.357056 46.0683 0.357056 44.1382V7.25499C0.357056 5.32483 1.14532 3.57182 2.41562 2.30222C3.68523 1.03192 5.43823 0.243652 7.36839 0.243652H77.168C79.0981 0.243652 80.8511 1.03192 82.1214 2.30222C83.391 3.57182 84.1793 5.32483 84.1793 7.25499V30.4348C88.0115 34.5382 90.3571 40.0471 90.3571 46.104C90.3571 52.4445 87.7869 58.1849 83.6314 62.3398C79.4765 66.4946 73.7361 69.0654 67.3956 69.0654C61.0551 69.0654 55.3148 66.4946 51.1599 62.3398C48.1407 59.3206 45.9592 55.4644 44.9911 51.1495ZM22.1814 38.9279C21.2105 38.9279 20.4236 38.141 20.4236 37.1701C20.4236 36.1998 21.2105 35.4123 22.1814 35.4123H47.0702C48.1517 33.3613 49.5346 31.4936 51.1599 29.8683C51.4524 29.5758 51.7525 29.2915 52.0601 29.0155H48.2705V28.988C47.2996 28.988 46.5127 28.2011 46.5127 27.2302C46.5127 26.26 47.2996 25.4724 48.2705 25.4724H57.3074C60.3527 23.9803 63.7763 23.1426 67.3963 23.1426C72.3271 23.1426 76.8947 24.6972 80.6369 27.3428V7.25499C80.6369 6.3033 80.2462 5.43607 79.6165 4.80641C78.9869 4.17744 78.1203 3.78606 77.168 3.78606H7.36839C6.41602 3.78606 5.54947 4.17744 4.91982 4.80641C4.29085 5.43607 3.89946 6.3033 3.89946 7.25499V25.4724H34.208C35.1789 25.4724 35.9658 26.26 35.9658 27.2302C35.9658 28.2011 35.1789 28.988 34.208 28.988V29.0155H3.89946V35.4123H8.1189C9.08981 35.4123 9.87671 36.1998 9.87671 37.1701C9.87671 38.141 9.08981 38.9279 8.1189 38.9279V38.9554H3.89946V44.1382C3.89946 45.0905 4.29085 45.9571 4.91982 46.5867C5.54947 47.2164 6.4167 47.6071 7.36839 47.6071H44.483C44.4507 47.11 44.4349 46.6087 44.4349 46.104C44.4349 43.6081 44.8331 41.2048 45.5699 38.9554H22.1814V38.9279ZM15.1501 35.4123C14.1792 35.4123 13.3923 36.1998 13.3923 37.1701C13.3923 38.141 14.1792 38.9279 15.1501 38.9279C16.1211 38.9279 16.908 38.141 16.908 37.1701C16.908 36.1992 16.1211 35.4123 15.1501 35.4123ZM41.2392 25.4724C40.2683 25.4724 39.4814 26.26 39.4814 27.2302C39.4814 28.2011 40.2683 28.988 41.2392 28.988C42.2102 28.988 42.9971 28.2011 42.9971 27.2302C42.9971 26.2593 42.2102 25.4724 41.2392 25.4724ZM67.3956 26.6857C62.219 26.6857 57.3102 28.7271 53.6648 32.3725C50.1505 35.8867 47.9773 40.7413 47.9773 46.104C47.9773 51.466 50.1505 56.3213 53.6648 59.8349C57.1783 63.3484 62.0336 65.5224 67.3956 65.5224C72.7583 65.5224 77.6129 63.3484 81.1272 59.8349C84.6407 56.3213 86.814 51.466 86.814 46.104C86.8147 35.38 78.1217 26.6857 67.3956 26.6857ZM71.9117 40.3685V35.908C71.9117 35.5393 71.7599 35.2028 71.5148 34.9584C71.2697 34.7133 70.9339 34.5608 70.5652 34.5608H64.7582C64.3895 34.5608 64.053 34.7133 63.8086 34.9584C63.5635 35.2028 63.4117 35.5393 63.4117 35.908V40.3685H71.9117ZM59.8686 40.7619C59.4237 40.9707 59.0213 41.2549 58.678 41.5983C57.9192 42.357 57.4482 43.4062 57.4482 44.5604V56.1496C57.4482 57.3046 57.9192 58.3531 58.678 59.1118C59.4367 59.8706 60.4852 60.3423 61.6402 60.3423H73.6832C74.8382 60.3423 75.8867 59.8706 76.6454 59.1118C77.4042 58.3531 77.8759 57.3046 77.8759 56.1496V44.5604C77.8759 43.4062 77.4042 42.3577 76.6454 41.5983C76.3021 41.2549 75.8997 40.9707 75.4548 40.7619V35.908C75.4548 34.5615 74.9055 33.3386 74.0204 32.4535C73.1346 31.5677 71.9117 31.0184 70.5659 31.0184H64.7582C63.4117 31.0184 62.1888 31.5677 61.3037 32.4535C60.4186 33.3386 59.8686 34.5615 59.8686 35.908V40.7619ZM73.6832 43.9109H61.6402C61.463 43.9109 61.301 43.985 61.1829 44.1031C61.0641 44.2219 60.9906 44.384 60.9906 44.5604V56.1496C60.9906 56.3268 61.0641 56.4888 61.1829 56.6069C61.301 56.7257 61.463 56.7992 61.6402 56.7992H73.6832C73.8597 56.7992 74.0218 56.7257 74.1405 56.6069C74.2593 56.4888 74.3328 56.3268 74.3328 56.1496V44.5604C74.3328 44.384 74.2593 44.2219 74.1405 44.1031C74.0218 43.985 73.8597 43.9109 73.6832 43.9109ZM69.4329 52.3003V48.4098C69.4329 47.432 68.6398 46.6389 67.6614 46.6389C66.6836 46.6389 65.8905 47.432 65.8905 48.4098V52.3003C65.8905 53.2788 66.6836 54.0719 67.6614 54.0719C68.6398 54.0719 69.4329 53.2788 69.4329 52.3003ZM10.575 17.6165H20.8033C21.7818 17.6165 22.5748 16.8234 22.5748 15.8456C22.5748 14.8671 21.7818 14.0741 20.8033 14.0741H10.575C9.59656 14.0741 8.80348 14.8671 8.80348 15.8456C8.80348 16.8234 9.59656 17.6165 10.575 17.6165ZM63.7331 17.6165H73.9613C74.9398 17.6165 75.7329 16.8234 75.7329 15.8456C75.7329 14.8671 74.9398 14.0741 73.9613 14.0741H63.7331C62.7553 14.0741 61.9622 14.8671 61.9622 15.8456C61.9622 16.8234 62.7553 17.6165 63.7331 17.6165ZM46.0142 17.6165H56.2418C57.2202 17.6165 58.0133 16.8234 58.0133 15.8456C58.0133 14.8671 57.2202 14.0741 56.2418 14.0741H46.0142C45.0357 14.0741 44.2426 14.8671 44.2426 15.8456C44.2426 16.8234 45.0357 17.6165 46.0142 17.6165ZM28.2946 17.6165H38.5229C39.5007 17.6165 40.2937 16.8234 40.2937 15.8456C40.2937 14.8671 39.5007 14.0741 38.5229 14.0741H28.2946C27.3161 14.0741 26.5231 14.8671 26.5231 15.8456C26.5231 16.8234 27.3161 17.6165 28.2946 17.6165Z" fill="#D9C896"/>
</svg>
